/* XPM */
static char * foo_xpm[] = {
"32 32 4 1",
" 	c #FFFFFFFFFFFF",
".	c #00000000EEEE",
"X	c #FFFF30303030",
"o	c #0000CDCD0000",
"                                ",
"                                ",
"                                ",
"      .                         ",
"     ....                       ",
"    .....                       ",
"     .....  X                   ",
"     ....  XXXXX                ",
"      .   X    XX               ",
"         XX     X X             ",
"         X       XX    XX       ",
"         X        XXXXXXX       ",
"         X         X    X       ",
"         X              X       ",
"         X              X       ",
"         X              X       ",
"         X      XXXX    X       ",
"         X      X  X    X       ",
"         XXX   X   XXX  X       ",
"         XXXX X      XX X       ",
"          XXXXX       XXX       ",
"           XXXX                 ",
"                                ",
"                  ooo           ",
"                  o oo          ",
"                 oo  ooo        ",
"                 oo    oo       ",
"                  oo   oo       ",
"                  oooooo        ",
"                                ",
"                                ",
"                                "};
